<?xml version="1.0" encoding="UTF-8" standalone="no"?>
<?xml-stylesheet type="text/css" href="../main.css"?>
<svg width="25px" height="25px" viewBox="0 0 25 25" version="1.1" xmlns="http://www.w3.org/2000/svg" xmlns:xlink="http://www.w3.org/1999/xlink">
    <!-- Generator: Sketch 47.1 (45422) - http://www.bohemiancoding.com/sketch -->
    <title>Artboard</title>
    <desc>Created with Sketch.</desc>
    <defs></defs>
    <g id="Page-1" stroke="none" stroke-width="1" fill="none" fill-rule="evenodd">
        <g id="Artboard" fill="#C2C2C2">
            <path d="M14.2393173,12.85 L22.0243173,2.995 C22.5193173,2.365 22.3843173,1.465 21.7993173,0.97 C21.1693173,0.52 20.2693173,0.61 19.7743173,1.24 L12.3943173,10.51 L5.01431727,1.24 C4.51931727,0.61 3.61931727,0.52 2.98931727,0.97 C2.40431727,1.465 2.26931727,2.365 2.76431727,2.995 L10.5493173,12.85 L2.76431727,22.66 C2.26931727,23.29 2.40431727,24.19 2.98931727,24.685 C3.25931727,24.91 3.57431727,25 3.88931727,25 C4.33931727,25 4.74431727,24.82 5.01431727,24.46 L12.3943173,15.145 L19.7743173,24.46 C20.0443173,24.82 20.4493173,25 20.8993173,25 C21.2143173,25 21.5293173,24.91 21.7993173,24.685 C22.3843173,24.19 22.5193173,23.29 22.0243173,22.66 L14.2393173,12.85 Z" id="x"></path>
        </g>
    </g>
</svg>