<?xml version="1.0" encoding="UTF-8" standalone="no"?>
<svg width="44px" height="40px" viewBox="0 0 44 40" version="1.1" xmlns="http://www.w3.org/2000/svg" xmlns:xlink="http://www.w3.org/1999/xlink">
    <!-- Generator: Sketch 47.1 (45422) - http://www.bohemiancoding.com/sketch -->
    <title>Shape</title>
    <desc>Created with Sketch.</desc>
    <defs></defs>
    <g id="Page-1" stroke="none" stroke-width="1" fill="none" fill-rule="evenodd">
        <g id="toggles-1" transform="translate(0.000000, -1.000000)" fill-rule="nonzero" fill="#212121">
            <path d="M1,7 L6.1,7 C6.57319247,9.33032398 8.62211839,11.0050126 11,11.0050126 C13.3778816,11.0050126 15.4268075,9.33032398 15.9,7 L43,7 C43.5522847,7 44,6.55228475 44,6 C44,5.44771525 43.5522847,5 43,5 L15.9,5 C15.4268075,2.66967602 13.3778816,0.994987437 11,0.994987437 C8.62211839,0.994987437 6.57319247,2.66967602 6.1,5 L1,5 C0.44771525,5 6.76353751e-17,5.44771525 0,6 C-6.76353751e-17,6.55228475 0.44771525,7 1,7 Z M11,3 C12.6568542,3 14,4.34314575 14,6 C14,7.65685425 12.6568542,9 11,9 C9.34314575,9 8,7.65685425 8,6 C8,4.34314575 9.34314575,3 11,3 Z M43,35 L23.9,35 C23.4268075,32.669676 21.3778816,30.9949874 19,30.9949874 C16.6221184,30.9949874 14.5731925,32.669676 14.1,35 L1,35 C0.44771525,35 6.76353751e-17,35.4477153 0,36 C-6.76353751e-17,36.5522847 0.44771525,37 1,37 L14.1,37 C14.5731925,39.330324 16.6221184,41.0050126 19,41.0050126 C21.3778816,41.0050126 23.4268075,39.330324 23.9,37 L43,37 C43.5522847,37 44,36.5522847 44,36 C44,35.4477153 43.5522847,35 43,35 Z M19,39 C17.3431458,39 16,37.6568542 16,36 C16,34.3431458 17.3431458,33 19,33 C20.6568542,33 22,34.3431458 22,36 C22,37.6568542 20.6568542,39 19,39 Z M43,20 L39.9,20 C39.4268075,17.669676 37.3778816,15.9949874 35,15.9949874 C32.6221184,15.9949874 30.5731925,17.669676 30.1,20 L1,20 C0.44771525,20 6.76353751e-17,20.4477153 0,21 C-6.76353751e-17,21.5522847 0.44771525,22 1,22 L30.1,22 C30.5731925,24.330324 32.6221184,26.0050126 35,26.0050126 C37.3778816,26.0050126 39.4268075,24.330324 39.9,22 L43,22 C43.5522847,22 44,21.5522847 44,21 C44,20.4477153 43.5522847,20 43,20 Z M35,24 C33.3431458,24 32,22.6568542 32,21 C32,19.3431458 33.3431458,18 35,18 C36.6568542,18 38,19.3431458 38,21 C38,22.6568542 36.6568542,24 35,24 Z" id="Shape"></path>
        </g>
    </g>
</svg>