<?xml version="1.0" encoding="UTF-8" standalone="no"?>
<?xml-stylesheet type="text/css" href="../main.css"?>
<svg width="100px" height="50px" viewBox="0 0 100 50" version="1.1" xmlns="http://www.w3.org/2000/svg" xmlns:xlink="http://www.w3.org/1999/xlink">
    <!-- Generator: Sketch 47.1 (45422) - http://www.bohemiancoding.com/sketch -->
    <title>Artboard</title>
    <desc>Created with Sketch.</desc>
    <defs></defs>
    <g id="Page-1" stroke="none" stroke-width="1" fill="none" fill-rule="evenodd">
        <g id="Artboard" stroke="#FFFFFF" fill="#FFFFFF">
            <path d="M25.504542,28.075 C25.779542,28.15 25.929542,28.45 25.829542,28.7 C25.229542,30.45 24.329542,31.25 23.679542,31.625 C22.404542,32.3 20.454542,32.1 19.279542,31.125 C17.329542,29.525 17.029542,26.325 17.029542,26.2 C17.004542,25.975 17.129542,25.775 17.329542,25.7 C20.854542,24.15 22.779542,22.25 23.054542,20.025 C23.304542,17.9 21.904542,15.375 19.454542,13.625 C19.329542,15.025 19.029542,16.725 18.579542,18.675 C17.679542,22.725 16.454542,26.55 16.429542,26.6 C15.804542,28.6 13.904542,32.575 11.104542,31.925 C9.85454204,31.625 9.12954204,30.375 9.37954204,28.85 C9.67954204,26.95 10.679542,26.15 11.479542,25.8 C12.354542,25.425 13.154542,25.525 13.179542,25.55 C13.179542,25.55 13.704542,25.55 13.704542,26.125 C13.704542,26.125 13.654542,26.575 13.054542,26.525 C13.054542,26.525 12.454542,26.475 11.854542,26.75 C11.029542,27.1 10.529542,27.85 10.354542,29 C10.204542,30 10.604542,30.775 11.329542,30.95 C12.529542,31.25 14.329542,29.9 15.479542,26.3 C15.504542,26.25 16.729542,22.45 17.604542,18.45 C18.129542,16.175 18.429542,14.25 18.529542,12.775 C17.704542,11.95 16.104542,10.175 16.279542,8.825 C16.329542,8.5 16.504542,8.25 16.804542,8.125 C17.254542,7.95 17.854542,8.175 18.654542,8.8 C19.054542,9.125 19.329542,9.65 19.454542,10.425 C19.554542,10.95 19.579542,11.6 19.554542,12.375 C21.779542,14.325 24.429542,16.625 24.054542,20.15 C23.679542,23.1 20.954542,25.05 18.079542,26.45 C18.204542,27.275 18.629542,29.3 19.929542,30.35 C21.929542,31.9 24.079542,30.775 24.879542,28.375 C24.979542,28.125 25.254542,27.975 25.504542,28.075 Z M17.279542,9.1 C17.379542,9.875 17.904542,10.575 18.554542,11.325 C18.479542,10.15 18.204542,9.725 18.029542,9.575 C17.654542,9.275 17.404542,9.15 17.279542,9.1 Z M28.4886336,31.925 C27.1636336,31.575 26.5136336,30.025 26.5386336,28.725 C26.5636336,27.175 27.4136336,25.25 29.1386336,24.4 C30.0136336,23.975 30.5386336,24.225 30.7636336,24.425 C31.2136336,24.775 31.3636336,25.5 31.0886336,26.225 C30.4636336,28.175 28.5386336,28.725 27.5386336,28.75 C27.5636336,29.675 28.0386336,30.775 28.8386336,30.975 C29.6886336,31.2 30.9636336,30.725 31.7636336,28.95 C31.8886336,28.675 32.1886336,28.55 32.4386336,28.625 C32.6886336,28.725 32.7886336,29 32.6886336,29.25 C31.8636336,31.575 30.0636336,32.325 28.4886336,31.925 Z M29.9136336,25.15 C28.7136336,25.275 27.8886336,26.8 27.6636336,27.75 C28.0636336,27.725 29.6636336,27.525 30.1386336,26.025 C30.2386336,25.7 30.2636336,25.15 29.9136336,25.15 Z M34.9477252,31.6 C36.5727252,32.55 39.4477252,31.8 40.1727252,29.375 C40.2477252,29.1 40.4227252,28.625 40.0977252,28.45 C39.8477252,28.325 39.4977252,28.425 39.4227252,28.7 C38.9727252,30.35 37.1477252,31.625 35.5227252,30.775 C33.9977252,29.7 34.6977252,27.3 35.2977252,26.175 C35.5727252,25.625 36.0977252,25.05 36.6477252,25.15 C37.1477252,25.25 37.4977252,25.7 37.4477252,26.2 C37.3477252,27.65 36.2727252,28.125 36.2227252,28.15 C35.9727252,28.25 35.8477252,28.525 35.9477252,28.8 C36.0477252,29.05 36.3477252,29.175 36.5977252,29.075 C36.6727252,29.05 38.3227252,28.4 38.4477252,26.275 C38.5227252,25.25 37.8227252,24.35 36.8477252,24.175 C35.7477252,23.95 34.8477252,24.825 34.3977252,25.7 C33.3477252,27.725 33.0227252,30.475 34.9477252,31.6 Z M42.3318168,32 C41.2568168,31.9 40.8068168,31.2 41.0068168,29.825 L41.9818168,24.55 C42.0318168,24.275 42.3068168,24.1 42.5818168,24.15 C42.8318168,24.2 43.0318168,24.45 42.9818168,24.725 L41.9818168,30.025 C41.8818168,30.425 41.9318168,30.95 42.3818168,31 C43.2068168,31.025 44.0818168,28.525 44.0818168,28.525 C44.1568168,28.25 44.4068168,28.075 44.6818168,28.125 C44.9568168,28.2 45.1068168,28.375 45.0318168,28.65 C44.7318168,29.825 43.7318168,32.1 42.3318168,32 Z M43.8568168,22.2 C43.8568168,21.725 43.4568168,21.325 42.9818168,21.325 C42.4818168,21.325 42.1068168,21.725 42.1068168,22.2 C42.1068168,22.7 42.4818168,23.1 42.9818168,23.1 C43.4568168,23.1 43.8568168,22.7 43.8568168,22.2 Z M52.0409084,28.35 C52.2909084,28.45 52.4159084,28.75 52.3159084,29 C52.3159084,29.05 51.9659084,29.95 51.4409084,30.8 C51.0409084,31.45 50.3159084,32.525 49.3909084,32.45 C47.6659084,32.25 47.8659084,30.6 48.4909084,29.45 C48.7659084,28.925 50.4909084,25.8 49.7659084,25.55 C49.2409084,25.35 47.6909084,26.175 47.1409084,27.4 C46.2409084,29.875 45.7159084,38.375 43.4909084,39.65 C43.1659084,39.825 42.7659084,39.85 42.3909084,39.7 C42.1409084,39.6 42.0159084,39.3 42.1409084,39.05 C42.2409084,38.8 42.5409084,38.675 42.7909084,38.775 C42.8659084,38.825 42.9159084,38.8 43.0159084,38.775 C44.5909084,37.875 45.9659084,26.625 46.6909084,24.575 C46.7659084,24.3 47.0159084,24.125 47.2909084,24.175 C47.5659084,24.25 47.7409084,24.5 47.6909084,24.775 L47.5659084,25.35 C48.3909084,24.675 49.3909084,24.35 50.0909084,24.6 C50.4909084,24.725 51.3659084,25.25 50.7159084,27.125 C50.0909084,28.925 48.2659084,30.925 49.4159084,31.375 C49.7159084,31.475 50.0909084,31.1 50.5909084,30.3 C51.0659084,29.5 51.3909084,28.65 51.3909084,28.65 C51.4909084,28.4 51.7659084,28.25 52.0409084,28.35 Z M54.65,32 C51.15,31.925 54.775,19.675 56.775,17.025 C57.475,16.1 58.875,15.525 59.625,16.45 C60.075,17.05 59.95,18.525 59.325,19.575 C57.9,22.075 56.3,24.3 54.65,26.25 L54.65,26.275 C54.5,27.1 53.775,30.55 54.725,30.9 C55.35,31.125 56.5,30.725 57.225,28.775 C57.325,28.5 57.625,28.325 57.9,28.4 C58.15,28.45 58.275,28.8 58.125,29.2 C57.35,31.3 55.975,32.15 54.65,32 Z M57.575,17.575 C56.675,18.775 55.75,21.5 55.1,24.175 C56.25,22.65 57.4,20.95 58.475,19.15 C58.75,18.525 59.05,17.45 58.8,17.125 C58.525,16.675 57.75,17.3 57.575,17.575 Z M60.9340916,31.925 C59.6090916,31.575 58.9590916,30.025 58.9840916,28.725 C59.0090916,27.175 59.8590916,25.25 61.5840916,24.4 C62.4590916,23.975 62.9840916,24.225 63.2090916,24.425 C63.6590916,24.775 63.8090916,25.5 63.5340916,26.225 C62.9090916,28.175 60.9840916,28.725 59.9840916,28.75 C60.0090916,29.675 60.4840916,30.775 61.2840916,30.975 C62.1340916,31.2 63.4090916,30.725 64.2090916,28.95 C64.3340916,28.675 64.6340916,28.55 64.8840916,28.625 C65.1340916,28.725 65.2340916,29 65.1340916,29.25 C64.3090916,31.575 62.5090916,32.325 60.9340916,31.925 Z M62.3590916,25.15 C61.1590916,25.275 60.3340916,26.8 60.1090916,27.75 C60.5090916,27.725 62.1090916,27.525 62.5840916,26.025 C62.6840916,25.7 62.7090916,25.15 62.3590916,25.15 Z M67.7681832,32 C68.7931832,32 69.8681832,30.95 70.9431832,28.875 C70.9181832,29.925 71.0681832,30.925 71.5181832,31.475 C73.0681832,33.3 74.4931832,30.225 74.8931832,28.875 C74.9681832,28.625 74.8181832,28.35 74.5681832,28.25 C74.2931832,28.175 74.0181832,28.325 73.9431832,28.6 C73.7931832,29.05 73.1681832,30.875 72.6431832,30.975 C72.4931832,31 72.3931832,30.925 72.2931832,30.825 C71.6431832,30.075 72.0431832,27.025 72.5431832,25.1 C72.5931832,24.825 72.4431832,24.575 72.1931832,24.5 C71.9431832,24.4 71.6681832,24.55 71.5681832,24.8 C69.3931832,30.925 67.8931832,31 67.7181832,31 C67.4181832,30.975 67.1931832,30.575 67.1181832,30.2 C66.9181832,29.3 67.0931832,26.95 67.8931832,25.8 C68.1681832,25.375 69.0181832,24.8 69.4431832,25.375 C69.7181832,25.75 69.1431832,26.65 68.8431832,27.025 C68.6681832,27.225 68.7181832,27.575 68.9681832,27.675 C69.2681832,27.8 69.5681832,27.55 69.8431832,27.1 C69.9181832,26.975 70.9431832,25.575 70.1181832,24.625 C69.3181832,23.7 67.7681832,24.2 67.0681832,25.225 C66.0431832,26.7 65.9181832,29.375 66.1181832,30.4 C66.3181832,31.325 66.9181832,31.95 67.6681832,32 L67.7681832,32 Z M78.4272748,35.375 L78.3772748,35.375 C78.0772748,35.375 77.8022748,35.225 77.6022748,35 C77.3022748,34.675 77.2022748,34.275 77.3022748,33.85 C77.4522748,33.25 78.0022748,32.625 78.5772748,32.425 C78.7272748,32.35 78.9022748,32.325 79.0522748,32.3 C78.9772748,30.575 78.4772748,28.85 78.3022748,27.225 C77.8772748,27.6 76.9272748,28 76.3272748,29.875 C76.2522748,30.15 75.9772748,30.275 75.7022748,30.2 C75.4272748,30.125 75.3022748,29.825 75.3772748,29.575 C76.2272748,26.9 77.5272748,26.4 78.2272748,26.075 C78.1022748,23.225 78.7272748,22.275 79.2772748,21.8 C79.6522748,21.5 80.2772748,21.35 80.7772748,21.625 C81.1022748,21.8 81.6272748,22.3 81.4522748,23.6 C81.2022748,25.35 79.6022748,26.55 79.2772748,26.8 C79.4772748,28.775 79.9272748,30.45 80.0522748,32.175 C81.6022748,31.875 82.2022748,30.525 82.8272748,28.9 C82.9272748,28.65 83.2022748,28.475 83.4522748,28.55 C83.7272748,28.625 83.9022748,28.925 83.8022748,29.175 C83.1022748,31 82.2022748,32.725 80.0272748,33.2 C79.9522748,33.825 79.7522748,34.575 79.2522748,35.05 C79.0272748,35.25 78.7272748,35.375 78.4272748,35.375 Z M79.0022748,33.35 C78.6522748,33.475 78.3522748,33.775 78.2772748,34.075 C78.2522748,34.175 78.3022748,34.375 78.4272748,34.375 C78.4772748,34.375 78.5272748,34.35 78.5772748,34.3 C78.7772748,34.1 78.9272748,33.75 79.0022748,33.35 Z M80.1772748,22.475 C80.1022748,22.475 80.0022748,22.525 79.9272748,22.575 C79.3772748,23.05 79.2022748,24.175 79.2022748,25.55 C79.6772748,25.1 80.3272748,24.35 80.4522748,23.45 C80.5272748,22.875 80.4272748,22.575 80.3022748,22.5 C80.2772748,22.5 80.2272748,22.475 80.1772748,22.475 Z M86.5613664,31.925 C85.2363664,31.575 84.5863664,30.025 84.6113664,28.725 C84.6363664,27.175 85.4863664,25.25 87.2113664,24.4 C88.0863664,23.975 88.6113664,24.225 88.8363664,24.425 C89.2863664,24.775 89.4363664,25.5 89.1613664,26.225 C88.5363664,28.175 86.6113664,28.725 85.6113664,28.75 C85.6363664,29.675 86.1113664,30.775 86.9113664,30.975 C87.7613664,31.2 89.0363664,30.725 89.8363664,28.95 C89.9613664,28.675 90.2613664,28.55 90.5113664,28.625 C90.7613664,28.725 90.8613664,29 90.7613664,29.25 C89.9363664,31.575 88.1363664,32.325 86.5613664,31.925 Z M87.9863664,25.15 C86.7863664,25.275 85.9613664,26.8 85.7363664,27.75 C86.1363664,27.725 87.7363664,27.525 88.2113664,26.025 C88.3113664,25.7 88.3363664,25.15 87.9863664,25.15 Z" id="Reciplease"></path>
        </g>
    </g>
</svg>