<?xml version="1.0" encoding="UTF-8" standalone="no"?>
<?xml-stylesheet type="text/css" href="../main.css"?>
<svg width="25px" height="24px" viewBox="0 0 25 24" version="1.1" xmlns="http://www.w3.org/2000/svg" xmlns:xlink="http://www.w3.org/1999/xlink">
    <!-- Generator: Sketch 47.1 (45422) - http://www.bohemiancoding.com/sketch -->
    <title>Artboard</title>
    <desc>Created with Sketch.</desc>
    <defs></defs>
    <g id="Page-1" stroke="none" stroke-width="1" fill="none" fill-rule="evenodd">
        <g id="Artboard">
            <g id="search" transform="translate(-2.000000, -2.000000)">
                <rect id="Rectangle" fill="#212121" x="0" y="0" width="29" height="28"></rect>
                <path d="M26.5412404,23.5555241 L19.6965976,16.9820955 C20.9235096,15.3756446 21.5807615,13.4334838 21.5715976,11.4415241 C21.5481874,6.24184823 17.1673511,2.03012761 11.7510619,2.00009552 C9.15906216,1.9888373 6.67002863,2.97322106 4.83844757,4.73395394 C3.0068665,6.49468681 1.98488406,8.88550787 2.00016902,11.3738098 C2.02357922,16.573959 6.40481521,20.7860634 11.8215976,20.8160955 C13.9050087,20.8247641 15.9354842,20.1864374 17.6099904,18.9963812 L17.6171333,18.9912384 L24.4555262,25.5595241 C24.8252563,25.9318901 25.3761793,26.0826151 25.8948385,25.9533002 C26.4134976,25.8239853 26.8183964,25.4349497 26.9526555,24.9369264 C27.0869146,24.4389032 26.929438,23.9101462 26.5412404,23.5555241 L26.5412404,23.5555241 Z M11.8144547,18.9338098 C7.48126556,18.9098801 3.97633375,15.5405573 3.95731188,11.3806669 C3.9456165,9.39028321 4.76326972,7.47801049 6.2282587,6.06952823 C7.69324768,4.66104597 9.68398039,3.87325622 11.7573119,3.88152409 C16.090501,3.90545378 19.5954329,7.27477659 19.6144547,11.4346669 C19.6261501,13.4250507 18.8084969,15.3373234 17.3435079,16.7458057 C15.8785189,18.1542879 13.8877862,18.9420777 11.8144547,18.9338098 Z" id="Search" fill="#FFFFFF" fill-rule="nonzero"></path>
            </g>
        </g>
    </g>
</svg>